HIERARCHY
ROOT Hips
{
	OFFSET 0.00000 0.00000 0.00000
	CHANNELS 6 Xposition Yposition Zposition Zrotation Yrotation Xrotation 
	JOINT LHipJoint
	{
		OFFSET 0 0 0
		CHANNELS 3 Zrotation Yrotation Xrotation
		JOINT LeftHip
		{
			OFFSET 1.57358 -1.76629 0.73362
			CHANNELS 3 Zrotation Yrotation Xrotation
			JOINT LeftKnee
			{
				OFFSET 2.40600 -6.61045 0.00000
				CHANNELS 3 Zrotation Yrotation Xrotation
				JOINT LeftAnkle
				{
					OFFSET 2.66168 -7.31291 0.00000
					CHANNELS 3 Zrotation Yrotation Xrotation
					JOINT LeftToe
					{
						OFFSET 0.20870 -0.57341 2.12506
						CHANNELS 3 Zrotation Yrotation Xrotation
						End Site
						{
							OFFSET 0.00000 -0.00000 1.10557
						}
					}
				}
			}
		}
	}
	JOINT RHipJoint
	{
		OFFSET 0 0 0
		CHANNELS 3 Zrotation Yrotation Xrotation
		JOINT RightHip
		{
			OFFSET -1.49299 -1.76629 0.73362
			CHANNELS 3 Zrotation Yrotation Xrotation
			JOINT RightKnee
			{
				OFFSET -2.43663 -6.69460 0.00000
				CHANNELS 3 Zrotation Yrotation Xrotation
				JOINT RightAnkle
				{
					OFFSET -2.62959 -7.22474 0.00000
					CHANNELS 3 Zrotation Yrotation Xrotation
					JOINT RightToe
					{
						OFFSET -0.25784 -0.70841 2.21862
						CHANNELS 3 Zrotation Yrotation Xrotation
						End Site
						{
							OFFSET -0.00000 -0.00000 1.16452
						}
					}
				}
			}
		}
	}
	JOINT lowerback
	{
		OFFSET 0 0 0
		CHANNELS 3 Zrotation Yrotation Xrotation
		JOINT Chest
		{
			OFFSET -0.00034 2.12399 -0.25450
			CHANNELS 3 Zrotation Yrotation Xrotation
			JOINT Chest2
			{
				OFFSET 0.05594 2.14379 -0.03318
				CHANNELS 3 Zrotation Yrotation Xrotation
				JOINT lowerneck
				{
					OFFSET 0 0 0
					CHANNELS 3 Zrotation Yrotation Xrotation
					JOINT Neck
					{
						OFFSET -0.09835 1.62725 0.24211
						CHANNELS 3 Zrotation Yrotation Xrotation
						JOINT Head
						{
							OFFSET 0.10849 1.66041 -0.22648
							CHANNELS 3 Zrotation Yrotation Xrotation
							End Site
							{
								OFFSET 0.04385 1.68267 -0.10541
							}
						}
					}
				}
				JOINT LeftCollar
				{
					OFFSET 0 0 0
					CHANNELS 3 Zrotation Yrotation Xrotation
					JOINT LeftShoulder
					{
						OFFSET 3.29108 0.79398 -0.68179
CHANNELS 3 Zrotation Xrotation Yrotation
						JOINT LeftElbow
						{
OFFSET 0 -5.153100 -0.000000
CHANNELS 3 Zrotation Xrotation Yrotation
							JOINT LeftWrist
							{
OFFSET 0 -3.751380 -0.000000
CHANNELS 3 Zrotation Xrotation Yrotation
								JOINT lhand
								{
									OFFSET 0 0 0
CHANNELS 3 Zrotation Xrotation Yrotation
									JOINT LFingers
									{
OFFSET 0 -0.529170 0.000000
CHANNELS 3 Zrotation Xrotation Yrotation
										End Site
										{
OFFSET 0 -0.426630 0.000000
										}
									}
								}
								JOINT LThumb
								{
OFFSET 0 0.000000 0.000000
CHANNELS 3 Zrotation Xrotation Yrotation
									End Site
									{
OFFSET 0 -0.433150 0.433150
									}
								}
							}
						}
					}
				}
				JOINT RightCollar
				{
					OFFSET 0 0 0
					CHANNELS 3 Zrotation Yrotation Xrotation
					JOINT RightShoulder
					{
						OFFSET -3.07414 1.06285 -0.44338
CHANNELS 3 Zrotation Xrotation Yrotation
						JOINT RightElbow
						{
OFFSET 0 -5.296130 0.000000
CHANNELS 3 Zrotation Xrotation Yrotation
							JOINT RightWrist
							{
OFFSET 0 -3.761440 -0.000000
CHANNELS 3 Zrotation Xrotation Yrotation
								JOINT rhand
								{
									OFFSET 0 0 0
CHANNELS 3 Zrotation Xrotation Yrotation
									JOINT RFingers
									{
OFFSET 0 -0.747320 0.000000
CHANNELS 3 Zrotation Xrotation Yrotation
										End Site
										{
OFFSET 0 -0.602510 0.000000
										}
									}
								}
								JOINT RThumb
								{
OFFSET 0 0.000000 0.000000
CHANNELS 3 Zrotation Xrotation Yrotation
									End Site
									{
OFFSET 0 -0.611710 0.611710
									}
								}
							}
						}
					}
				}
			}
		}
	}
}
MOTION
Frames: 8
Frame Time: 0.008333333333333333
12.560200 17.534600 -27.737200 -1.597700 -0.442300 -2.150800 0.000000 0.000000 0.000000 -15.401800 -4.442700 -17.877500 11.958800 18.373200 65.858100 -0.015300 -3.441700 -1.572300 0.081100 -1.837200 -5.055900 0.000000 0.000000 0.000000 27.758900 11.030200 -6.618600 -2.047700 -8.964800 25.685100 -0.318700 1.337500 -10.278500 -0.004100 -0.411200 1.129900 0.802900 -1.542600 6.903900 4.856900 -1.802200 -0.038300 4.784300 -0.868300 -3.783900 -9.798600 -3.737600 -15.871800 3.596800 -3.538800 22.722100 2.429100 -2.073100 10.125400 0.000000 -0.000000 0.000000 -2.077900 -3.311300 -20.194900 15.819600 -25.275400 3.568600 19.571200 17.754200 -29.583600 0.000000 0.000000 0.000000 -7.125000 0.000000 0.000000 -13.433800 60.547500 5.146500 0.000000 -0.000000 0.000000 -2.808600 5.644100 -1.078600 -13.048800 -21.358700 -2.471000 -18.047400 8.259500 -11.880800 0.000000 0.000000 0.000000 7.125000 0.000000 -0.000000 6.374600 17.549900 4.181800
12.557723 17.536989 -27.627218 -1.620970 -0.545380 -2.164736 0.000000 0.000000 0.000000 -15.311727 -4.537197 -18.457093 11.862975 18.331747 65.553372 -0.003621 -3.272702 -2.073190 0.056768 -1.486108 -4.088274 0.000000 0.000000 0.000000 27.916927 10.791479 -6.258881 -2.060928 -8.991787 25.769599 -0.345156 1.404170 -10.684937 -0.005958 0.030319 -0.083349 0.947256 -1.439122 7.032905 4.753112 -1.654216 0.033768 4.580883 -0.798400 -3.798853 -9.633229 -3.872268 -16.383971 3.553577 -3.708418 22.829693 2.357431 -2.138266 10.269270 0.000000 0.000000 0.000000 -1.929827 -3.307717 -20.608327 15.683561 -25.089281 3.510955 21.256582 15.540632 -21.619443 0.000000 0.000000 0.000000 -7.125000 0.000000 0.000000 -9.002681 52.581131 2.777780 0.000000 0.000000 0.000000 -2.661987 5.331099 -0.794621 -13.240405 -21.637680 -2.541785 -17.915918 7.901772 -11.721888 0.000000 0.000000 0.000000 7.125000 0.000000 0.000000 6.465116 17.725092 4.216484
12.555245 17.539378 -27.517237 -1.644241 -0.648460 -2.178671 0.000000 0.000000 0.000000 -15.221653 -4.631695 -19.036687 11.767151 18.290293 65.248644 0.008059 -3.103703 -2.574080 0.032436 -1.135016 -3.120648 0.000000 0.000000 0.000000 28.074953 10.552758 -5.899163 -2.074156 -9.018773 25.854098 -0.371612 1.470841 -11.091373 -0.007816 0.471838 -1.296597 1.091613 -1.335643 7.161910 4.649324 -1.506232 0.105835 4.377465 -0.728500 -3.813807 -9.467859 -4.006936 -16.896142 3.510354 -3.878035 22.937285 2.285761 -2.203432 10.413140 0.000000 0.000000 0.000000 -1.781755 -3.304133 -21.021753 15.547522 -24.903161 3.453310 22.941965 13.327063 -13.655286 0.000000 0.000000 0.000000 -7.125000 0.000000 0.000000 -4.571563 44.614762 0.409061 0.000000 0.000000 0.000000 -2.515375 5.018098 -0.510642 -13.432010 -21.916660 -2.612569 -17.784435 7.544044 -11.562977 0.000000 0.000000 0.000000 7.125000 0.000000 0.000000 6.555632 17.900284 4.251169
12.553520 17.537546 -27.407582 -1.710245 -0.718427 -2.172189 0.000000 0.000000 0.000000 -15.087439 -4.753449 -19.654303 11.681829 18.252603 64.976376 0.022356 -3.028353 -3.141263 0.031106 -1.131718 -3.111295 0.000000 0.000000 0.000000 28.242633 10.370513 -5.471515 -2.064806 -8.999656 25.794362 -0.395744 1.529331 -11.443231 -0.006042 0.474141 -1.302859 1.252003 -1.306246 7.432892 4.583558 -1.435371 -0.086223 4.225322 -0.692990 -4.177470 -9.316460 -4.015725 -16.750421 3.419129 -3.924458 22.926493 2.223286 -2.223803 10.379137 0.000000 0.000000 0.000000 -1.699583 -2.756102 -21.401117 15.438903 -24.753821 3.407706 22.843518 14.101398 -17.333987 0.000000 0.000000 0.000000 -7.125000 0.000000 0.000000 -5.818096 48.467357 1.212040 0.000000 0.000000 0.000000 -2.441305 5.212276 0.176168 -13.713108 -22.321158 -2.719445 -17.773497 7.045255 -11.098482 0.000000 0.000000 0.000000 7.125000 0.000000 0.000000 6.561498 18.383841 4.184909
12.552060 17.534228 -27.298043 -1.791294 -0.776735 -2.158519 0.000000 0.000000 0.000000 -14.937685 -4.884799 -20.285303 11.600206 18.216238 64.715534 0.037575 -2.985971 -3.731783 0.037875 -1.250858 -3.439293 0.000000 0.000000 0.000000 28.413711 10.208151 -5.019953 -2.047508 -8.964308 25.683850 -0.419059 1.584941 -11.775874 -0.002990 0.321821 -0.884212 1.418037 -1.302928 7.753856 4.531177 -1.391662 -0.371264 4.091229 -0.669587 -4.663893 -9.169980 -3.980200 -16.373094 3.311006 -3.927510 22.874024 2.164048 -2.228404 10.282516 0.000000 0.000000 0.000000 -1.640610 -2.016402 -21.768489 15.339937 -24.617427 3.366341 22.117090 15.927598 -25.111450 0.000000 0.000000 0.000000 -7.125000 0.000000 0.000000 -9.063395 56.480709 3.131587 0.000000 0.000000 0.000000 -2.392773 5.585002 1.004791 -14.025711 -22.769845 -2.839027 -17.804997 6.496807 -10.526410 0.000000 0.000000 0.000000 7.125000 0.000000 0.000000 6.537564 18.975954 4.083111
12.550749 17.525037 -27.191366 -1.900922 -0.917223 -2.124155 0.000000 0.000000 0.000000 -14.743153 -4.962423 -20.976645 11.516674 18.178515 64.448036 0.054935 -2.983491 -4.332354 0.050920 -1.436380 -3.950668 0.000000 0.000000 0.000000 28.607411 10.171686 -4.570872 -2.034111 -8.936826 25.597932 -0.441123 1.673372 -12.074913 -0.003245 0.053823 -0.147747 1.530282 -1.259390 7.748013 4.552601 -1.318545 -0.476808 4.045443 -0.633760 -4.777267 -9.128959 -3.962590 -15.902819 3.236933 -3.941418 22.623867 2.133285 -2.240362 10.102635 0.000000 0.000000 0.000000 -1.679527 -1.547346 -22.214224 15.201917 -24.426185 3.309265 22.432911 17.150685 -30.479835 0.000000 0.000000 0.000000 -7.125000 0.000000 0.000000 -10.929970 62.153721 4.604726 0.000000 0.000000 0.000000 -2.459750 5.689840 1.836721 -14.311090 -23.176636 -2.950022 -17.900950 5.817479 -10.032233 0.000000 0.000000 0.000000 7.125000 0.000000 0.000000 6.468830 19.483641 3.966876
12.549598 17.509464 -27.087799 -2.041607 -1.147008 -2.067307 0.000000 0.000000 0.000000 -14.499963 -4.981667 -21.733554 11.431069 18.139318 64.173303 0.074622 -3.024369 -4.943845 0.070784 -1.694037 -4.661301 0.000000 0.000000 0.000000 28.825693 10.272023 -4.124486 -2.024953 -8.917891 25.538738 -0.461827 1.797466 -12.337435 -0.007093 -0.339872 0.934063 1.584078 -1.172148 7.387055 4.654221 -1.213474 -0.387310 4.095612 -0.584432 -4.485280 -9.202531 -3.964449 -15.331542 3.199859 -3.967122 22.158900 2.133462 -2.260315 9.832281 0.000000 0.000000 0.000000 -1.824813 -1.372375 -22.745109 15.021460 -24.175342 3.235119 23.881253 17.718422 -33.230481 0.000000 0.000000 0.000000 -7.125000 0.000000 0.000000 -11.298404 65.283685 5.592791 0.000000 0.000000 0.000000 -2.652240 5.503587 2.672245 -14.566888 -23.537903 -3.051687 -18.066940 4.995935 -9.622700 0.000000 0.000000 0.000000 7.125000 0.000000 0.000000 6.351416 19.899589 3.834951
12.548051 17.494027 -26.983468 -2.182049 -1.400883 -2.011484 0.000000 0.000000 0.000000 -14.251603 -4.975311 -22.484373 11.338434 18.096509 63.875534 0.094251 -3.073981 -5.530586 0.086416 -1.896549 -5.219847 0.000000 0.000000 0.000000 29.052748 10.373464 -3.669938 -2.015050 -8.897377 25.474674 -0.482115 1.896830 -12.596646 -0.010158 -0.649491 1.784842 1.638784 -1.083182 7.076865 4.750245 -1.102235 -0.337230 4.141810 -0.531395 -4.263678 -9.285311 -3.952441 -14.742411 3.180128 -3.979279 21.766797 2.143719 -2.274215 9.584615 0.000000 0.000000 0.000000 -1.961132 -1.110908 -23.252271 14.865085 -23.957817 3.170964 25.014178 17.673732 -34.721773 0.000000 0.000000 0.000000 -7.125000 0.000000 0.000000 -11.111636 67.065744 5.999500 0.000000 0.000000 0.000000 -2.839608 5.392484 3.475255 -14.813758 -23.885633 -3.150359 -18.162381 4.268197 -9.289593 0.000000 0.000000 0.000000 7.125000 0.000000 0.000000 6.284294 20.240322 3.744410
